<?xml version="1.0" encoding="UTF-8" standalone="no"?>
<!-- Created with Inkscape (http://www.inkscape.org/) -->

<svg
   xmlns:dc="http://purl.org/dc/elements/1.1/"
   xmlns:cc="http://creativecommons.org/ns#"
   xmlns:rdf="http://www.w3.org/1999/02/22-rdf-syntax-ns#"
   xmlns:svg="http://www.w3.org/2000/svg"
   xmlns="http://www.w3.org/2000/svg"
   xmlns:sodipodi="http://sodipodi.sourceforge.net/DTD/sodipodi-0.dtd"
   xmlns:inkscape="http://www.inkscape.org/namespaces/inkscape"
   width="70.289803mm"
   height="40.53035mm"
   viewBox="0 0 70.289803 40.53035"
   version="1.1"
   id="svg8"
   inkscape:version="0.92.1 r15371"
   sodipodi:docname="resumerge.svg">
  <defs
     id="defs2" />
  <sodipodi:namedview
     id="base"
     pagecolor="#ffffff"
     bordercolor="#666666"
     borderopacity="1.0"
     inkscape:pageopacity="0.0"
     inkscape:pageshadow="2"
     inkscape:zoom="1.4"
     inkscape:cx="207.11405"
     inkscape:cy="62.307562"
     inkscape:document-units="mm"
     inkscape:current-layer="layer1"
     showgrid="false"
     inkscape:snap-global="false"
     inkscape:window-width="1920"
     inkscape:window-height="1027"
     inkscape:window-x="-8"
     inkscape:window-y="-8"
     inkscape:window-maximized="1"
     fit-margin-top="0"
     fit-margin-left="0"
     fit-margin-right="0"
     fit-margin-bottom="0" />
  <metadata
     id="metadata5">
    <rdf:RDF>
      <cc:Work
         rdf:about="">
        <dc:format>image/svg+xml</dc:format>
        <dc:type
           rdf:resource="http://purl.org/dc/dcmitype/StillImage" />
        <dc:title></dc:title>
      </cc:Work>
    </rdf:RDF>
  </metadata>
  <g
     inkscape:label="レイヤー 1"
     inkscape:groupmode="layer"
     id="layer1"
     transform="translate(300.43924,160.83272)">
    <g
       id="g4760"
       transform="translate(-21.544643,-100.16369)">
      <path
         id="path4753"
         d="m -257.20548,-60.668132 c -1.11318,-0.03262 -2.05779,0.882613 -2.05879,1.996263 a 1.0001,1.0001 0 0 0 0,0.0021 v 2.482535 h -8.31269 c -1.09254,1.8e-4 -1.99969,0.907339 -1.99985,1.99988 v 10.423652 a 1.0001,1.0001 0 0 0 0,0.0021 c 1.6e-4,1.092543 0.90731,1.998154 1.99985,1.998329 h 8.31269 v 2.482019 c -0.002,1.492371 1.70738,2.480979 2.99981,1.734777 l 8.3969,-4.847767 4.1181,-2.377633 -4.27881,-2.470131 c -1.29167,-0.745803 -1.29167,-2.718591 0,-3.464388 l 4.27881,-2.470653 -4.1181,-2.37763 -8.3969,-4.847252 c -0.28698,-0.165079 -0.61009,-0.256616 -0.94102,-0.265615 z"
         style="color:#000000;font-style:normal;font-variant:normal;font-weight:normal;font-stretch:normal;font-size:medium;line-height:normal;font-family:sans-serif;font-variant-ligatures:normal;font-variant-position:normal;font-variant-caps:normal;font-variant-numeric:normal;font-variant-alternates:normal;font-feature-settings:normal;text-indent:0;text-align:start;text-decoration:none;text-decoration-line:none;text-decoration-style:solid;text-decoration-color:#000000;letter-spacing:normal;word-spacing:normal;text-transform:none;writing-mode:lr-tb;direction:ltr;text-orientation:mixed;dominant-baseline:auto;baseline-shift:baseline;text-anchor:start;white-space:normal;shape-padding:0;clip-rule:nonzero;display:inline;overflow:visible;visibility:visible;opacity:1;isolation:auto;mix-blend-mode:normal;color-interpolation:sRGB;color-interpolation-filters:linearRGB;solid-color:#000000;solid-opacity:1;vector-effect:none;fill:#c83737;fill-opacity:1;fill-rule:nonzero;stroke:none;stroke-width:2;stroke-linecap:round;stroke-linejoin:round;stroke-miterlimit:4;stroke-dasharray:none;stroke-dashoffset:0;stroke-opacity:1;paint-order:normal;color-rendering:auto;image-rendering:auto;shape-rendering:auto;text-rendering:auto;enable-background:accumulate"
         inkscape:connector-curvature="0" />
      <path
         id="path4627-6"
         transform="scale(0.26458333)"
         d="m -921.25781,-196.60938 -14.22266,8.2129 a 3.7799055,3.7799055 0 0 0 0,6.54687 l 14.22266,8.21094 14.2207,-8.21094 a 3.7799055,3.7799055 0 0 0 0,-6.54687 z"
         style="color:#000000;font-style:normal;font-variant:normal;font-weight:normal;font-stretch:normal;font-size:medium;line-height:normal;font-family:sans-serif;font-variant-ligatures:normal;font-variant-position:normal;font-variant-caps:normal;font-variant-numeric:normal;font-variant-alternates:normal;font-feature-settings:normal;text-indent:0;text-align:start;text-decoration:none;text-decoration-line:none;text-decoration-style:solid;text-decoration-color:#000000;letter-spacing:normal;word-spacing:normal;text-transform:none;writing-mode:lr-tb;direction:ltr;text-orientation:mixed;dominant-baseline:auto;baseline-shift:baseline;text-anchor:start;white-space:normal;shape-padding:0;clip-rule:nonzero;display:inline;overflow:visible;visibility:visible;opacity:1;isolation:auto;mix-blend-mode:normal;color-interpolation:sRGB;color-interpolation-filters:linearRGB;solid-color:#000000;solid-opacity:1;vector-effect:none;fill:#333333;fill-opacity:1;fill-rule:nonzero;stroke:none;stroke-width:7.55905533;stroke-linecap:round;stroke-linejoin:round;stroke-miterlimit:4;stroke-dasharray:none;stroke-dashoffset:0;stroke-opacity:1;paint-order:normal;color-rendering:auto;image-rendering:auto;shape-rendering:auto;text-rendering:auto;enable-background:accumulate"
         inkscape:connector-curvature="0" />
      <path
         id="path4749"
         d="m -230.29395,-60.668132 v 5.29e-4 c -0.33094,0.009 -0.65457,0.100536 -0.94155,0.265615 l -8.39638,4.847252 -4.1181,2.37763 4.27881,2.470653 c 1.29167,0.745797 1.29167,2.718586 0,3.464388 l -4.27829,2.470131 4.11758,2.377633 8.39638,4.847767 c 1.29244,0.746202 3.00188,-0.242405 3.00034,-1.734777 v -2.482019 h 8.31215 c 1.09255,-1.75e-4 2.00023,-0.905786 2.0004,-1.998329 a 1.0001,1.0001 0 0 0 0,-0.0021 v -10.423652 c -1.7e-4,-1.092541 -0.90785,-1.9997 -2.0004,-1.99988 h -8.31215 v -2.482535 a 1.0001,1.0001 0 0 0 0,-0.0021 c -0.001,-1.11365 -0.94562,-2.028881 -2.05879,-1.996263 z"
         style="color:#000000;font-style:normal;font-variant:normal;font-weight:normal;font-stretch:normal;font-size:medium;line-height:normal;font-family:sans-serif;font-variant-ligatures:normal;font-variant-position:normal;font-variant-caps:normal;font-variant-numeric:normal;font-variant-alternates:normal;font-feature-settings:normal;text-indent:0;text-align:start;text-decoration:none;text-decoration-line:none;text-decoration-style:solid;text-decoration-color:#000000;letter-spacing:normal;word-spacing:normal;text-transform:none;writing-mode:lr-tb;direction:ltr;text-orientation:mixed;dominant-baseline:auto;baseline-shift:baseline;text-anchor:start;white-space:normal;shape-padding:0;clip-rule:nonzero;display:inline;overflow:visible;visibility:visible;opacity:1;isolation:auto;mix-blend-mode:normal;color-interpolation:sRGB;color-interpolation-filters:linearRGB;solid-color:#000000;solid-opacity:1;vector-effect:none;fill:#2c5aa0;fill-opacity:1;fill-rule:nonzero;stroke:none;stroke-width:2;stroke-linecap:round;stroke-linejoin:round;stroke-miterlimit:4;stroke-dasharray:none;stroke-dashoffset:0;stroke-opacity:1;paint-order:normal;color-rendering:auto;image-rendering:auto;shape-rendering:auto;text-rendering:auto;enable-background:accumulate"
         inkscape:connector-curvature="0" />
    </g>
    <g
       aria-label="ResuMerge"
       style="font-style:normal;font-variant:normal;font-weight:normal;font-stretch:normal;font-size:14.8166666px;line-height:6.61458302px;font-family:'Gen Shin Gothic P';-inkscape-font-specification:'Gen Shin Gothic P';letter-spacing:0px;word-spacing:0px;fill:#333333;fill-opacity:1;stroke:none;stroke-width:0.26458332"
       id="text4764">
      <path
         d="m -291.28254,-126.52538 q 0.5334,0.51859 0.5334,1.27424 0,0.68156 -0.47413,1.18533 -0.51859,0.54822 -1.25942,0.54822 -0.69638,0 -1.20015,-0.47414 l -2.3114,-2.20768 q -0.54822,-0.50377 -0.54822,-1.25942 0,-0.32596 0.11854,-0.63711 0.20743,-0.50377 0.63711,-0.8001 0.4445,-0.29634 0.9779,-0.29634 h 0.28152 q 0.31115,0 0.31115,-0.29633 0,-0.29633 -0.32597,-0.29633 h -1.80763 q -0.25188,0 -0.42968,0.1778 -0.1778,0.1778 -0.1778,0.42968 v 3.94123 q 0,0.72602 -0.51859,1.2446 -0.50376,0.50377 -1.22978,0.50377 -0.7112,0 -1.22978,-0.50377 -0.50377,-0.51858 -0.50377,-1.2446 v -6.28226 q 0,-0.7112 0.50377,-1.21497 0.51858,-0.51858 1.22978,-0.51858 h 4.16348 q 1.55575,0 2.667,1.11125 1.11125,1.09643 1.11125,2.65218 0,1.12607 -0.59266,2.05952 -0.0444,0.0741 -0.13335,0.19261 -0.22225,0.31115 -0.0444,0.48895 0.0741,0.0593 0.25188,0.22225 z"
         style="font-style:normal;font-variant:normal;font-weight:normal;font-stretch:normal;font-family:'OTADESIGN Rounded';-inkscape-font-specification:'OTADESIGN Rounded';fill:#333333;fill-opacity:1;stroke-width:0.26458332"
         id="path4641" />
      <path
         d="m -286.47592,-123.35461 q -1.54093,0 -2.63737,-1.08162 -1.08161,-1.09643 -1.08161,-2.63736 0,-1.52612 1.08161,-2.60774 1.09644,-1.09643 2.63737,-1.09643 1.52612,0 2.56328,1.02235 0.34079,0.34078 0.34079,0.82973 0,0.48895 -0.34079,0.82974 l -1.71873,1.70391 q -0.37042,0.37042 -0.74083,0.37042 -0.5334,0 -0.82974,-0.29633 -0.29633,-0.29634 -0.29633,-0.78529 0,-0.47413 0.34078,-0.81491 l 0.29634,-0.31115 q 0.0593,-0.0445 0.0296,-0.0889 -0.0444,-0.0296 -0.11853,-0.0148 -0.29634,0.0741 -0.50377,0.29633 -0.41487,0.40005 -0.41487,0.96309 0,0.57785 0.40005,0.99271 0.41487,0.40005 0.99272,0.40005 0.56303,0 0.96308,-0.41486 0.34079,-0.34079 0.82974,-0.34079 0.48895,0 0.82973,0.34079 0.34078,0.34078 0.34078,0.82973 0,0.48895 -0.34078,0.82973 -1.09643,1.08162 -2.62255,1.08162 z"
         style="font-style:normal;font-variant:normal;font-weight:normal;font-stretch:normal;font-family:'OTADESIGN Rounded';-inkscape-font-specification:'OTADESIGN Rounded';fill:#333333;fill-opacity:1;stroke-width:0.26458332"
         id="path4643" />
      <path
         d="m -280.26287,-128.27374 q 0.3556,0.0889 0.889,0.19261 0.889,0.14817 1.39276,0.47414 0.94827,0.6223 0.94827,1.8669 0,1.00753 -0.66675,1.64465 -0.77047,0.74083 -2.14842,0.74083 -1.00753,0 -2.25213,-0.28152 -0.40005,-0.0889 -0.65193,-0.40005 -0.23707,-0.31115 -0.23707,-0.69638 0,-0.47413 0.32597,-0.8001 0.34078,-0.34078 0.8001,-0.34078 0.13335,0 0.25188,0.0296 0.42968,0.0889 1.64465,0.22225 0.16298,0 0.3556,-0.0148 0.0741,0 0.0741,-0.0889 0.0148,-0.0741 -0.0889,-0.10371 -0.50376,-0.0889 -0.93345,-0.19262 -0.48895,-0.10372 -0.69638,-0.1778 -0.41487,-0.11853 -0.69638,-0.31115 -0.94827,-0.6223 -0.96309,-1.8669 0,-0.99272 0.68157,-1.64465 0.82973,-0.8001 2.35585,-0.72602 1.02235,0.0445 2.0447,0.2667 0.38523,0.0889 0.63712,0.40005 0.25188,0.31115 0.25188,0.7112 0,0.45932 -0.34078,0.8001 -0.32597,0.32597 -0.8001,0.32597 -0.11854,0 -0.23707,-0.0296 -0.42968,-0.0889 -1.65947,-0.20744 -0.14816,-0.0148 -0.28151,0 -0.11854,0.0148 -0.11854,0.0889 0.0148,0.0889 0.11854,0.11854 z"
         style="font-style:normal;font-variant:normal;font-weight:normal;font-stretch:normal;font-family:'OTADESIGN Rounded';-inkscape-font-specification:'OTADESIGN Rounded';fill:#333333;fill-opacity:1;stroke-width:0.26458332"
         id="path4645" />
      <path
         d="m -272.77444,-123.35461 q -1.5113,0 -2.59292,-1.08162 -1.08161,-1.08161 -1.08161,-2.60773 v -2.20768 q 0,-0.6223 0.4445,-1.05199 0.4445,-0.4445 1.0668,-0.4445 v 0 q 0.6223,0 1.05198,0.4445 0.4445,0.42969 0.4445,1.05199 v 2.20768 q 0,0.28152 0.19262,0.48895 0.19261,0.19262 0.47413,0.19262 0.28152,0 0.47413,-0.19262 0.20744,-0.20743 0.20744,-0.48895 v -2.20768 q 0,-0.6223 0.4445,-1.05199 0.4445,-0.4445 1.0668,-0.4445 v 0 q 0.6223,0 1.05198,0.4445 0.4445,0.42969 0.4445,1.05199 v 2.20768 q 0,1.52612 -1.08162,2.60773 -1.08161,1.08162 -2.60773,1.08162 z"
         style="font-style:normal;font-variant:normal;font-weight:normal;font-stretch:normal;font-family:'OTADESIGN Rounded';-inkscape-font-specification:'OTADESIGN Rounded';fill:#333333;fill-opacity:1;stroke-width:0.26458332"
         id="path4647" />
      <path
         d="m -263.30288,-125.51784 q -0.28152,-0.0148 -0.51859,-0.10372 -0.59266,-0.19262 -0.87418,-0.69638 -0.13335,-0.1778 -0.2667,-0.1778 -0.13335,0 -0.13335,0.1778 v 1.21496 q 0,0.7112 -0.51858,1.22979 -0.50377,0.50376 -1.22979,0.50376 -0.7112,0 -1.22978,-0.50376 -0.50377,-0.51859 -0.50377,-1.22979 v -6.29708 q 0,-0.54822 0.31115,-0.99272 0.32597,-0.45931 0.82974,-0.63711 0.28151,-0.10372 0.59266,-0.10372 0.8001,0 1.3335,0.6223 0.28152,0.31115 0.32597,0.32597 l 1.6002,1.74836 q 0.11853,0.0889 0.28152,0.0889 0.1778,0 0.29633,-0.0889 l 1.6002,-1.74836 q 0.0148,0.0148 0.31115,-0.32597 0.54822,-0.6223 1.34832,-0.6223 0.29633,0 0.59266,0.10372 0.50377,0.1778 0.81492,0.63711 0.32597,0.4445 0.32597,0.99272 v 6.29708 q 0,0.7112 -0.51859,1.22979 -0.50376,0.50376 -1.22978,0.50376 -0.7112,0 -1.22978,-0.50376 -0.50377,-0.51859 -0.50377,-1.22979 v -1.21496 q 0,-0.1778 -0.13335,-0.1778 -0.13335,0 -0.28152,0.1778 -0.40005,0.74083 -1.39276,0.8001 z"
         style="font-style:normal;font-variant:normal;font-weight:normal;font-stretch:normal;font-family:'OTADESIGN Rounded';-inkscape-font-specification:'OTADESIGN Rounded';fill:#333333;fill-opacity:1;stroke-width:0.26458332"
         id="path4649" />
      <path
         d="m -253.65932,-123.35461 q -1.54093,0 -2.63737,-1.08162 -1.08161,-1.09643 -1.08161,-2.63736 0,-1.52612 1.08161,-2.60774 1.09644,-1.09643 2.63737,-1.09643 1.52612,0 2.56328,1.02235 0.34079,0.34078 0.34079,0.82973 0,0.48895 -0.34079,0.82974 l -1.71873,1.70391 q -0.37042,0.37042 -0.74083,0.37042 -0.5334,0 -0.82974,-0.29633 -0.29633,-0.29634 -0.29633,-0.78529 0,-0.47413 0.34078,-0.81491 l 0.29634,-0.31115 q 0.0593,-0.0445 0.0296,-0.0889 -0.0445,-0.0296 -0.11853,-0.0148 -0.29634,0.0741 -0.50377,0.29633 -0.41487,0.40005 -0.41487,0.96309 0,0.57785 0.40005,0.99271 0.41487,0.40005 0.99272,0.40005 0.56303,0 0.96308,-0.41486 0.34079,-0.34079 0.82974,-0.34079 0.48895,0 0.82973,0.34079 0.34078,0.34078 0.34078,0.82973 0,0.48895 -0.34078,0.82973 -1.09643,1.08162 -2.62255,1.08162 z"
         style="font-style:normal;font-variant:normal;font-weight:normal;font-stretch:normal;font-family:'OTADESIGN Rounded';-inkscape-font-specification:'OTADESIGN Rounded';fill:#333333;fill-opacity:1;stroke-width:0.26458332"
         id="path4651" />
      <path
         d="m -246.48319,-130.68886 q 0.6223,0 1.05198,0.4445 0.4445,0.4445 0.4445,1.0668 0,0.6223 -0.4445,1.0668 -0.42968,0.42968 -1.05198,0.42968 -0.31115,0 -0.50377,0.22225 -0.1778,0.20744 -0.1778,0.51859 v 2.05951 q 0,0.6223 -0.4445,1.0668 -0.4445,0.4445 -1.0668,0.4445 -0.6223,0 -1.0668,-0.4445 -0.42968,-0.4445 -0.42968,-1.0668 v -4.2672 q 0,-0.6223 0.42968,-1.0668 0.4445,-0.4445 1.0668,-0.4445 0.1778,0 0.38524,0.0593 0.5334,0.11853 0.93345,0.0296 0.4445,-0.11853 0.87418,-0.11853 z"
         style="font-style:normal;font-variant:normal;font-weight:normal;font-stretch:normal;font-family:'OTADESIGN Rounded';-inkscape-font-specification:'OTADESIGN Rounded';fill:#333333;fill-opacity:1;stroke-width:0.26458332"
         id="path4653" />
      <path
         d="m -238.77713,-130.64441 q 0.56303,0 0.96308,0.40005 0.40005,0.40005 0.40005,0.96308 v 5.334 q 0,1.65947 -1.00753,2.65219 -0.99272,0.99271 -2.68182,0.99271 -0.9779,0 -1.76318,-0.37041 -0.78529,-0.3556 -0.78529,-1.22979 0,-0.29633 0.11854,-0.56303 0.37041,-0.8001 1.2446,-0.8001 0.20743,0 0.57785,0.11853 0.37041,0.11854 0.60748,0.11854 0.6223,0 0.8001,-0.23707 0.0741,-0.10372 0.0296,-0.19262 -0.0445,-0.0889 -0.1778,-0.0593 -0.2667,0.0444 -0.59266,0.0444 -1.49649,0 -2.56329,-1.0668 -1.0668,-1.0668 -1.0668,-2.56329 0,-1.49648 1.0668,-2.56328 1.0668,-1.0668 2.56329,-1.0668 0.50376,0 1.12606,0.1778 0.34079,0.10372 0.69639,-0.0148 0.23706,-0.0741 0.4445,-0.0741 z m -2.26695,4.16348 q 0.2667,0 0.4445,-0.1778 0.1778,-0.19261 0.1778,-0.4445 0,-0.2667 -0.1778,-0.4445 -0.1778,-0.1778 -0.4445,-0.1778 -0.25189,0 -0.4445,0.1778 -0.1778,0.1778 -0.1778,0.4445 0,0.25189 0.1778,0.4445 0.19261,0.1778 0.4445,0.1778 z"
         style="font-style:normal;font-variant:normal;font-weight:normal;font-stretch:normal;font-family:'OTADESIGN Rounded';-inkscape-font-specification:'OTADESIGN Rounded';fill:#333333;fill-opacity:1;stroke-width:0.26458332"
         id="path4655" />
      <path
         d="m -233.11277,-123.35461 q -1.54093,0 -2.63737,-1.08162 -1.08161,-1.09643 -1.08161,-2.63736 0,-1.52612 1.08161,-2.60774 1.09644,-1.09643 2.63737,-1.09643 1.52612,0 2.56328,1.02235 0.34079,0.34078 0.34079,0.82973 0,0.48895 -0.34079,0.82974 l -1.71873,1.70391 q -0.37042,0.37042 -0.74083,0.37042 -0.5334,0 -0.82974,-0.29633 -0.29633,-0.29634 -0.29633,-0.78529 0,-0.47413 0.34078,-0.81491 l 0.29634,-0.31115 q 0.0593,-0.0445 0.0296,-0.0889 -0.0445,-0.0296 -0.11853,-0.0148 -0.29634,0.0741 -0.50377,0.29633 -0.41487,0.40005 -0.41487,0.96309 0,0.57785 0.40005,0.99271 0.41487,0.40005 0.99272,0.40005 0.56303,0 0.96308,-0.41486 0.34079,-0.34079 0.82974,-0.34079 0.48895,0 0.82973,0.34079 0.34078,0.34078 0.34078,0.82973 0,0.48895 -0.34078,0.82973 -1.09643,1.08162 -2.62255,1.08162 z"
         style="font-style:normal;font-variant:normal;font-weight:normal;font-stretch:normal;font-family:'OTADESIGN Rounded';-inkscape-font-specification:'OTADESIGN Rounded';fill:#333333;fill-opacity:1;stroke-width:0.26458332"
         id="path4657" />
    </g>
  </g>
</svg>
